<?xml version="1.0" encoding="UTF-8"?>
<svg xmlns="http://www.w3.org/2000/svg" xmlns:xlink="http://www.w3.org/1999/xlink" width="50pt" height="52pt" viewBox="0 0 50 52" version="1.1">
<g id="surface1">
<path style=" stroke:none;fill-rule:nonzero;fill:rgb(89.411765%,30.196078%,14.901961%);fill-opacity:1;" d="M 24.367188 47.765625 L 8.621094 43.382812 L 5.113281 4.234375 L 43.621094 4.234375 L 40.113281 43.382812 Z M 24.367188 47.765625 "/>
<path style=" stroke:none;fill-rule:nonzero;fill:rgb(94.509804%,39.607843%,16.078431%);fill-opacity:1;" d="M 37.125 40.929688 L 40.113281 7.429688 L 24.367188 7.429688 L 24.367188 44.421875 Z M 37.125 40.929688 "/>
<path style=" stroke:none;fill-rule:nonzero;fill:rgb(100%,100%,100%);fill-opacity:1;" d="M 24.367188 17.085938 L 36.007812 17.085938 L 36.457031 12.257812 L 12.277344 12.257812 L 13.621094 26.742188 L 30.335938 26.742188 L 29.738281 32.984375 L 24.367188 34.46875 L 18.992188 32.984375 L 18.695312 29.195312 L 13.84375 29.195312 L 14.515625 36.695312 L 24.367188 39.445312 L 34.292969 36.695312 L 35.558594 21.988281 L 18.023438 21.988281 L 17.574219 17.085938 Z M 24.367188 17.085938 "/>
<path style=" stroke:none;fill-rule:nonzero;fill:rgb(92.156863%,92.156863%,92.156863%);fill-opacity:1;" d="M 24.367188 34.46875 L 18.992188 32.984375 L 18.695312 29.195312 L 13.84375 29.195312 L 14.515625 36.695312 L 24.367188 39.445312 Z M 24.367188 34.46875 "/>
<path style=" stroke:none;fill-rule:nonzero;fill:rgb(92.156863%,92.156863%,92.156863%);fill-opacity:1;" d="M 24.367188 26.742188 L 24.367188 21.988281 L 18.023438 21.988281 L 17.574219 17.085938 L 24.367188 17.085938 L 24.367188 12.257812 L 12.277344 12.257812 L 13.621094 26.742188 Z M 24.367188 26.742188 "/>
</g>
</svg>
