<?xml version="1.0" encoding="UTF-8"?>
<svg xmlns="http://www.w3.org/2000/svg" xmlns:xlink="http://www.w3.org/1999/xlink" width="50pt" height="52pt" viewBox="0 0 50 52" version="1.1">
<defs>
<filter id="alpha" filterUnits="objectBoundingBox" x="0%" y="0%" width="100%" height="100%">
  <feColorMatrix type="matrix" in="SourceGraphic" values="0 0 0 0 1 0 0 0 0 1 0 0 0 0 1 0 0 0 1 0"/>
</filter>
<mask id="mask0">
  <g filter="url(#alpha)">
<rect x="0" y="0" width="50" height="52" style="fill:rgb(0%,0%,0%);fill-opacity:0.2;stroke:none;"/>
  </g>
</mask>
<linearGradient id="linear0" gradientUnits="userSpaceOnUse" x1="34.0759" y1="28.053" x2="22.3259" y2="33.7299" gradientTransform="matrix(0.742942,0,0,0.739546,0,0.115899)">
<stop offset="0" style="stop-color:rgb(100%,100%,100%);stop-opacity:1;"/>
<stop offset="1" style="stop-color:rgb(0%,0%,0%);stop-opacity:1;"/>
</linearGradient>
<clipPath id="clip1">
  <rect x="0" y="0" width="50" height="52"/>
</clipPath>
<g id="surface5" clip-path="url(#clip1)">
<path style=" stroke:none;fill-rule:nonzero;fill:url(#linear0);" d="M 15.304688 27.628906 L 37.445312 18.011719 L 37.816406 13.28125 L 14.933594 22.894531 Z M 15.304688 27.628906 "/>
</g>
<mask id="mask1">
  <g filter="url(#alpha)">
<rect x="0" y="0" width="50" height="52" style="fill:rgb(0%,0%,0%);fill-opacity:0.301961;stroke:none;"/>
  </g>
</mask>
<linearGradient id="linear1" gradientUnits="userSpaceOnUse" x1="34.9177" y1="24.3941" x2="50.9371" y2="24.3941" gradientTransform="matrix(0.742942,0,0,0.739546,0,0.115899)">
<stop offset="0" style="stop-color:rgb(100%,100%,100%);stop-opacity:1;"/>
<stop offset="1" style="stop-color:rgb(0%,0%,0%);stop-opacity:1;"/>
</linearGradient>
<clipPath id="clip2">
  <rect x="0" y="0" width="50" height="52"/>
</clipPath>
<g id="surface8" clip-path="url(#clip2)">
<path style=" stroke:none;fill-rule:nonzero;fill:url(#linear1);" d="M 25.929688 18.308594 L 25.929688 23.042969 L 37.445312 18.011719 L 37.816406 13.28125 Z M 25.929688 18.308594 "/>
</g>
</defs>
<g id="surface1">
<path style=" stroke:none;fill-rule:nonzero;fill:rgb(4.313725%,45.490196%,72.156863%);fill-opacity:1;" d="M 25.929688 48.1875 L 10.402344 43.898438 L 6.984375 5.367188 L 44.949219 5.367188 L 41.457031 43.898438 Z M 25.929688 48.1875 "/>
<path style=" stroke:none;fill-rule:nonzero;fill:rgb(18.039216%,66.666667%,87.058824%);fill-opacity:1;" d="M 38.484375 41.457031 L 41.457031 8.546875 L 25.929688 8.546875 L 25.929688 44.933594 Z M 38.484375 41.457031 "/>
<path style=" stroke:none;fill-rule:nonzero;fill:rgb(92.156863%,92.156863%,92.156863%);fill-opacity:1;" d="M 15.304688 27.628906 L 37.445312 18.011719 L 37.816406 13.28125 L 14.933594 22.894531 Z M 15.304688 27.628906 "/>
<use xlink:href="#surface5" mask="url(#mask0)"/>
<path style=" stroke:none;fill-rule:nonzero;fill:rgb(92.156863%,92.156863%,92.156863%);fill-opacity:1;" d="M 25.929688 13.28125 L 14.042969 13.28125 L 14.191406 14.609375 L 14.488281 18.011719 L 25.929688 18.011719 Z M 25.929688 13.28125 "/>
<path style=" stroke:none;fill-rule:nonzero;fill:rgb(100%,100%,100%);fill-opacity:1;" d="M 37 22.894531 L 25.929688 22.894531 L 25.929688 27.628906 L 31.796875 27.628906 L 31.203125 33.765625 L 25.929688 35.171875 L 25.929688 40.050781 L 35.660156 37.390625 Z M 37 22.894531 "/>
<path style=" stroke:none;fill-rule:nonzero;fill:rgb(100%,100%,100%);fill-opacity:1;" d="M 25.929688 18.308594 L 25.929688 23.042969 L 37.445312 18.011719 L 37.816406 13.28125 Z M 25.929688 18.308594 "/>
<use xlink:href="#surface8" mask="url(#mask1)"/>
<path style=" stroke:none;fill-rule:nonzero;fill:rgb(92.156863%,92.156863%,92.156863%);fill-opacity:1;" d="M 14.933594 22.894531 L 15.304688 27.628906 L 25.929688 27.628906 L 25.929688 22.894531 Z M 14.933594 22.894531 "/>
<path style=" stroke:none;fill-rule:nonzero;fill:rgb(100%,100%,100%);fill-opacity:1;" d="M 37.816406 13.28125 L 25.929688 13.28125 L 25.929688 18.011719 L 37.445312 18.011719 Z M 37.816406 13.28125 "/>
<path style=" stroke:none;fill-rule:nonzero;fill:rgb(92.156863%,92.156863%,92.156863%);fill-opacity:1;" d="M 25.929688 35.171875 L 20.652344 33.765625 L 20.28125 29.992188 L 15.527344 29.992188 L 16.195312 37.390625 L 25.929688 40.050781 Z M 25.929688 35.171875 "/>
</g>
</svg>
