<?xml version="1.0" encoding="UTF-8"?>
<svg xmlns="http://www.w3.org/2000/svg" xmlns:xlink="http://www.w3.org/1999/xlink" width="50pt" height="50pt" viewBox="0 0 50 50" version="1.1">
<g id="surface1">
<path style=" stroke:none;fill-rule:nonzero;fill:rgb(76.470588%,5.490196%,18.039216%);fill-opacity:1;" d="M 36.179688 41.640625 L 25.929688 47.066406 Z M 36.179688 41.640625 "/>
<path style=" stroke:none;fill-rule:nonzero;fill:rgb(100%,64.705882%,5.490196%);fill-opacity:1;" d="M 8.320312 37.40625 L 21.25 13.113281 L 14.859375 2.414062 C 14.339844 1.597656 13.820312 1.671875 13.671875 2.636719 L 7.800781 37.257812 C 7.652344 38.222656 8.171875 39.339844 9.0625 39.785156 C 8.246094 39.339844 7.875 38.296875 8.320312 37.40625 Z M 8.320312 37.40625 "/>
<path style=" stroke:none;fill-rule:nonzero;fill:rgb(100%,64.313725%,4.705882%);fill-opacity:1;" d="M 40.492188 37.40625 L 25.261719 8.582031 C 24.8125 7.765625 24.070312 7.765625 23.625 8.582031 L 21.25 13.113281 L 36.851562 39.414062 C 37.371094 40.230469 37.074219 41.269531 36.179688 41.714844 L 39.820312 39.785156 C 40.640625 39.339844 40.9375 38.296875 40.492188 37.40625 Z M 40.492188 37.40625 "/>
<path style=" stroke:none;fill-rule:nonzero;fill:rgb(96.078431%,50.980392%,4.313725%);fill-opacity:1;" d="M 36.851562 39.414062 L 21.25 13.113281 L 8.320312 37.40625 C 7.875 38.222656 8.171875 39.265625 9.0625 39.710938 L 22.882812 46.992188 C 23.699219 47.4375 25.113281 47.4375 25.929688 46.992188 L 36.179688 41.566406 C 37.074219 41.195312 37.296875 40.230469 36.851562 39.414062 Z M 36.851562 39.414062 "/>
<path style=" stroke:none;fill-rule:nonzero;fill:rgb(100%,79.607843%,16.862745%);fill-opacity:1;" d="M 8.765625 37.777344 C 8.097656 38.445312 8.246094 39.339844 9.0625 39.785156 L 22.882812 47.066406 C 23.699219 47.511719 25.113281 47.511719 25.929688 47.066406 L 39.820312 39.785156 C 40.640625 39.339844 41.234375 38.222656 41.011719 37.257812 L 36.253906 12.742188 C 36.105469 11.777344 35.363281 11.628906 34.695312 12.222656 Z M 8.765625 37.777344 "/>
</g>
</svg>
