<?xml version="1.0" encoding="UTF-8"?>
<svg xmlns="http://www.w3.org/2000/svg" xmlns:xlink="http://www.w3.org/1999/xlink" width="49pt" height="45pt" viewBox="0 0 49 45" version="1.1">
<g id="surface1">
<path style=" stroke:none;fill-rule:nonzero;fill:rgb(37.647059%,60%,82.352941%);fill-opacity:1;" d="M 7.105469 2.859375 L 43.191406 2.859375 L 40.046875 39.011719 L 25.148438 43.25 L 10.386719 39.289062 Z M 7.105469 2.859375 "/>
<path style=" stroke:none;fill-rule:nonzero;fill:rgb(43.137255%,80.784314%,94.509804%);fill-opacity:1;" d="M 25.148438 5.433594 L 39.84375 5.433594 L 37.3125 35.8125 L 25.148438 39.289062 Z M 25.148438 5.433594 "/>
<path style=" stroke:none;fill-rule:nonzero;fill:rgb(100%,100%,100%);fill-opacity:1;" d="M 32.1875 25.734375 C 31.710938 27.125 29.933594 27.472656 29.933594 27.472656 C 29.933594 27.472656 28.632812 27.679688 28.496094 26.84375 C 28.359375 26.011719 27.472656 25.246094 27.472656 25.246094 C 32.1875 25.039062 33.964844 21.769531 33.964844 18.851562 C 33.964844 15.929688 32.394531 14.679688 32.394531 14.679688 C 32.53125 10.785156 32.121094 10.996094 32.121094 10.996094 C 30 10.925781 28.359375 12.386719 28.359375 12.386719 C 27.199219 11.898438 25.148438 11.96875 25.148438 11.96875 C 25.148438 11.96875 23.097656 11.898438 21.9375 12.386719 C 21.9375 12.386719 20.296875 10.925781 18.179688 10.996094 C 18.179688 10.996094 17.769531 10.714844 17.90625 14.679688 C 17.90625 14.679688 16.332031 15.859375 16.332031 18.851562 C 16.332031 21.839844 18.042969 25.039062 22.824219 25.246094 C 22.824219 25.246094 21.867188 26.011719 21.800781 26.84375 C 21.664062 27.679688 20.367188 27.472656 20.367188 27.472656 C 20.367188 27.472656 18.589844 27.125 18.109375 25.734375 C 17.632812 24.34375 15.855469 24.480469 15.785156 24.828125 C 15.71875 25.175781 16.675781 25.386719 17.015625 25.941406 C 17.289062 26.496094 17.835938 28.164062 18.519531 28.445312 C 19.203125 28.792969 20.570312 29.277344 21.867188 28.652344 C 21.867188 29.347656 21.9375 30.945312 21.867188 31.503906 C 21.800781 31.710938 21.664062 32.128906 21.320312 32.269531 C 20.980469 32.40625 20.570312 32.546875 20.640625 32.683594 C 20.640625 32.824219 21.320312 32.960938 21.9375 32.753906 C 22.550781 32.546875 22.960938 32.128906 23.167969 31.640625 C 23.304688 31.363281 23.234375 29.070312 23.167969 27.886719 C 23.167969 27.886719 23.234375 27.261719 23.578125 27.054688 C 23.644531 28.445312 23.714844 30.808594 23.578125 31.921875 C 23.507812 32.199219 23.371094 32.683594 23.03125 32.824219 C 22.6875 32.960938 22.277344 33.171875 22.347656 33.308594 C 22.347656 33.519531 23.03125 33.65625 23.644531 33.449219 C 24.261719 33.242188 24.671875 32.753906 24.875 32.199219 C 25.011719 31.921875 24.945312 28.445312 24.945312 26.636719 C 24.945312 26.636719 25.011719 26.496094 25.148438 26.496094 C 25.285156 26.496094 25.355469 26.636719 25.355469 26.636719 C 25.355469 28.445312 25.285156 31.851562 25.421875 32.199219 C 25.628906 32.753906 26.039062 33.242188 26.652344 33.449219 C 27.269531 33.65625 27.953125 33.519531 27.953125 33.308594 C 27.953125 33.101562 27.609375 32.960938 27.269531 32.824219 C 26.925781 32.683594 26.722656 32.199219 26.722656 31.921875 C 26.585938 30.808594 26.652344 28.445312 26.722656 27.054688 C 26.996094 27.261719 27.132812 27.886719 27.132812 27.886719 C 27.0625 29.140625 27.0625 31.433594 27.132812 31.640625 C 27.335938 32.128906 27.746094 32.546875 28.359375 32.753906 C 28.976562 32.960938 29.660156 32.824219 29.660156 32.683594 C 29.660156 32.546875 29.316406 32.335938 28.976562 32.269531 C 28.632812 32.128906 28.429688 31.710938 28.429688 31.503906 C 28.359375 30.878906 28.359375 29.347656 28.429688 28.652344 C 29.726562 29.207031 31.09375 28.722656 31.777344 28.445312 C 32.53125 28.097656 33.007812 26.496094 33.28125 25.941406 C 33.554688 25.386719 34.511719 25.175781 34.511719 24.828125 C 34.445312 24.550781 32.667969 24.34375 32.1875 25.734375 Z M 32.1875 25.734375 "/>
</g>
</svg>
