<?xml version="1.0" encoding="UTF-8"?>
<svg xmlns="http://www.w3.org/2000/svg" xmlns:xlink="http://www.w3.org/1999/xlink" width="50pt" height="50pt" viewBox="0 0 50 50" version="1.1">
<g id="surface1">
<path style=" stroke:none;fill-rule:nonzero;fill:rgb(0%,84.705882%,100%);fill-opacity:1;" d="M 28.5625 25.113281 C 28.5625 27.4375 26.6875 29.308594 24.363281 29.308594 C 22.039062 29.308594 20.164062 27.4375 20.164062 25.113281 C 20.164062 22.789062 22.039062 20.914062 24.363281 20.914062 C 26.6875 20.914062 28.5625 22.789062 28.5625 25.113281 Z M 28.5625 25.113281 "/>
<path style=" stroke:none;fill-rule:nonzero;fill:rgb(0%,84.705882%,100%);fill-opacity:1;" d="M 24.363281 15.515625 C 11.394531 15.515625 0.898438 19.789062 0.898438 25.113281 C 0.898438 30.359375 11.394531 34.707031 24.363281 34.707031 C 37.332031 34.707031 47.824219 30.433594 47.824219 25.113281 C 47.824219 19.863281 37.332031 15.515625 24.363281 15.515625 Z M 40.253906 30.058594 C 36.058594 31.785156 30.433594 32.683594 24.4375 32.683594 C 18.441406 32.683594 12.820312 31.710938 8.621094 30.058594 C 5.097656 28.636719 3 26.761719 3 25.113281 C 3 23.464844 5.097656 21.589844 8.621094 20.164062 C 12.820312 18.441406 18.441406 17.542969 24.4375 17.542969 C 30.433594 17.542969 36.058594 18.515625 40.253906 20.164062 C 43.777344 21.589844 45.878906 23.464844 45.878906 25.113281 C 45.878906 26.761719 43.777344 28.636719 40.253906 30.058594 Z M 40.253906 30.058594 "/>
<path style=" stroke:none;fill-rule:nonzero;fill:rgb(0%,84.705882%,100%);fill-opacity:1;" d="M 16.117188 20.316406 C 9.671875 31.558594 8.097656 42.730469 12.667969 45.425781 C 17.242188 48.050781 26.160156 41.15625 32.683594 29.910156 C 39.128906 18.664062 40.703125 7.496094 36.132812 4.796875 C 31.558594 2.175781 22.5625 9.144531 16.117188 20.316406 Z M 36.582031 13.867188 C 35.980469 18.367188 33.957031 23.6875 30.960938 28.933594 C 27.960938 34.183594 24.289062 38.53125 20.765625 41.304688 C 17.765625 43.628906 15.066406 44.527344 13.644531 43.703125 C 12.21875 42.878906 11.695312 40.105469 12.144531 36.355469 C 12.742188 31.859375 14.769531 26.535156 17.765625 21.289062 C 20.765625 16.117188 24.4375 11.695312 27.960938 8.921875 C 30.960938 6.597656 33.65625 5.695312 35.082031 6.523438 C 36.582031 7.347656 37.105469 10.121094 36.582031 13.867188 Z M 36.582031 13.867188 "/>
<path style=" stroke:none;fill-rule:nonzero;fill:rgb(0%,84.705882%,100%);fill-opacity:1;" d="M 12.667969 4.796875 C 8.097656 7.421875 9.671875 18.664062 16.117188 29.910156 C 22.5625 41.15625 31.558594 48.050781 36.132812 45.425781 C 40.703125 42.804688 39.128906 31.558594 32.683594 20.316406 C 26.160156 9.144531 17.242188 2.175781 12.667969 4.796875 Z M 13.644531 6.523438 C 15.066406 5.695312 17.765625 6.597656 20.765625 8.921875 C 24.363281 11.695312 27.960938 16.117188 30.960938 21.289062 C 33.957031 26.535156 35.980469 31.859375 36.582031 36.355469 C 37.105469 40.179688 36.582031 42.878906 35.082031 43.703125 C 33.65625 44.527344 30.960938 43.628906 27.960938 41.304688 C 24.363281 38.53125 20.765625 34.109375 17.765625 28.933594 C 14.769531 23.761719 12.742188 18.367188 12.144531 13.867188 C 11.621094 10.121094 12.21875 7.347656 13.644531 6.523438 Z M 13.644531 6.523438 "/>
</g>
</svg>
