<?xml version="1.0" encoding="UTF-8"?>
<svg xmlns="http://www.w3.org/2000/svg" xmlns:xlink="http://www.w3.org/1999/xlink" width="49pt" height="47pt" viewBox="0 0 49 47" version="1.1">
<g id="surface1">
<path style=" stroke:none;fill-rule:nonzero;fill:rgb(12.54902%,45.882353%,60.392157%);fill-opacity:1;" d="M 6.152344 3.882812 L 43.484375 3.882812 L 40.304688 41.320312 L 24.816406 45.710938 L 9.546875 41.605469 Z M 6.152344 3.882812 "/>
<path style=" stroke:none;fill-rule:nonzero;fill:rgb(27.45098%,26.666667%,26.27451%);fill-opacity:1;" d="M 24.816406 6.546875 L 40.089844 6.546875 L 37.402344 38.007812 L 24.816406 41.605469 Z M 24.816406 6.546875 "/>
<path style=" stroke:none;fill-rule:nonzero;fill:rgb(100%,100%,100%);fill-opacity:1;" d="M 34.644531 20.082031 C 34.503906 20.367188 34.222656 21.015625 33.867188 22.097656 L 29.414062 34.695312 C 33.375 32.824219 36.0625 28.71875 36.0625 24.039062 C 36.0625 22.382812 35.707031 20.800781 35.140625 19.433594 C 35 19.578125 34.859375 19.792969 34.644531 20.082031 Z M 34.644531 20.082031 "/>
<path style=" stroke:none;fill-rule:nonzero;fill:rgb(100%,100%,100%);fill-opacity:1;" d="M 19.230469 18.496094 L 19.230469 18.929688 L 18.949219 18.929688 C 18.523438 18.929688 18.171875 19 17.960938 19.214844 C 17.746094 19.433594 17.605469 19.648438 17.605469 19.9375 C 17.605469 20.222656 17.816406 20.871094 18.171875 21.878906 L 21.496094 31.167969 L 24.324219 23.246094 L 23.828125 21.878906 L 23.332031 20.800781 C 23.191406 20.367188 22.980469 20.007812 22.769531 19.71875 C 22.625 19.578125 22.554688 19.433594 22.34375 19.359375 C 22.132812 19.214844 21.917969 19.074219 21.707031 19.074219 C 21.566406 19 21.28125 19 20.929688 19 L 20.929688 18.570312 L 27.574219 18.570312 L 27.574219 19 L 27.152344 19 C 26.65625 19 26.375 19.074219 26.160156 19.289062 C 25.949219 19.503906 25.808594 19.71875 25.808594 20.082031 C 25.808594 20.511719 26.019531 21.230469 26.375 22.238281 L 29.625 31.238281 L 32.808594 22.097656 C 33.160156 21.089844 33.375 20.367188 33.375 20.007812 C 33.375 19.792969 33.304688 19.648438 33.160156 19.503906 C 33.019531 19.359375 32.878906 19.214844 32.738281 19.144531 C 32.453125 19 32.03125 19 31.535156 19 L 31.535156 18.570312 L 34.789062 18.570312 C 32.808594 14.824219 28.988281 12.304688 24.605469 12.304688 C 20.152344 12.304688 16.332031 14.824219 14.425781 18.570312 L 19.230469 18.570312 Z M 19.230469 18.496094 "/>
<path style=" stroke:none;fill-rule:nonzero;fill:rgb(100%,100%,100%);fill-opacity:1;" d="M 15.554688 21.734375 C 15.203125 20.726562 14.917969 20.082031 14.847656 19.9375 C 14.707031 19.648438 14.425781 19.433594 14.140625 19.214844 C 14.070312 19.214844 14.070312 19.144531 14 19.144531 C 13.292969 20.65625 12.9375 22.3125 12.9375 24.113281 C 12.9375 29.152344 16.050781 33.472656 20.433594 35.128906 Z M 15.554688 21.734375 "/>
<path style=" stroke:none;fill-rule:nonzero;fill:rgb(100%,100%,100%);fill-opacity:1;" d="M 24.816406 24.902344 L 21.070312 35.34375 C 22.132812 35.703125 23.332031 35.847656 24.535156 35.847656 C 25.949219 35.847656 27.292969 35.558594 28.566406 35.128906 Z M 24.816406 24.902344 "/>
</g>
</svg>
