<?xml version="1.0" encoding="UTF-8"?>
<svg xmlns="http://www.w3.org/2000/svg" xmlns:xlink="http://www.w3.org/1999/xlink" width="50pt" height="49pt" viewBox="0 0 50 49" version="1.1">
<g id="surface1">
<path style=" stroke:none;fill-rule:nonzero;fill:rgb(40%,62.352941%,39.215686%);fill-opacity:1;" d="M 26.355469 43.957031 C 27.214844 43.089844 28.070312 43.019531 28.929688 43.8125 C 29.644531 44.460938 30.355469 44.386719 31.144531 43.882812 C 33.144531 42.585938 35.214844 41.433594 37.285156 40.28125 C 37.855469 39.992188 38.144531 39.632812 38.144531 38.910156 C 38.070312 36.316406 38.144531 33.722656 38.144531 31.128906 C 38.144531 30.554688 38 30.191406 37.429688 29.90625 C 35.214844 28.679688 33 27.382812 30.785156 26.085938 C 30.285156 25.796875 29.855469 25.726562 29.285156 26.085938 C 27.070312 27.382812 24.855469 28.679688 22.644531 29.976562 C 22.144531 30.265625 21.855469 30.625 21.855469 31.273438 C 21.929688 33.867188 21.929688 36.460938 21.855469 39.054688 C 21.855469 39.632812 22 39.992188 22.570312 40.28125 C 23.144531 40.570312 23.714844 40.929688 24.285156 41.21875 C 25.355469 41.722656 26 41.289062 26 40.066406 C 26 37.398438 26 34.730469 26 32.066406 C 26 31.488281 26 30.984375 26.855469 30.984375 C 27.714844 30.984375 27.5 31.5625 27.5 32.066406 C 27.5 34.730469 27.5 37.46875 27.5 40.136719 C 27.5 42.296875 26 43.378906 24 42.585938 C 23 42.226562 22.144531 41.578125 21.214844 41.074219 C 20.644531 40.714844 20.429688 40.136719 20.429688 39.488281 C 20.429688 36.605469 20.429688 33.652344 20.429688 30.769531 C 20.429688 29.976562 20.785156 29.398438 21.5 28.96875 C 24 27.527344 26.5 26.085938 29 24.570312 C 29.714844 24.140625 30.355469 24.210938 31.070312 24.570312 C 33.570312 26.011719 36.070312 27.527344 38.570312 28.96875 C 39.285156 29.398438 39.570312 29.976562 39.570312 30.769531 C 39.570312 33.652344 39.570312 36.535156 39.570312 39.417969 C 39.570312 40.28125 39.214844 40.855469 38.5 41.289062 C 35.929688 42.730469 33.429688 44.242188 30.929688 45.683594 C 30.355469 46.046875 29.785156 46.046875 29.214844 45.683594 C 28.285156 45.035156 27.355469 44.460938 26.355469 43.957031 Z M 26.355469 43.957031 "/>
<path style=" stroke:none;fill-rule:nonzero;fill:rgb(40%,62.352941%,39.215686%);fill-opacity:1;" d="M 32.429688 39.488281 C 31.5 39.488281 30.644531 39.417969 29.785156 39.054688 C 29 38.695312 28.5 38.117188 28.285156 37.253906 C 28.214844 36.894531 28 36.460938 28.570312 36.390625 C 28.929688 36.316406 29.570312 36.03125 29.714844 36.679688 C 30.070312 37.976562 31.144531 38.046875 32.144531 38.117188 C 32.785156 38.117188 33.355469 38.046875 34 37.902344 C 34.429688 37.832031 34.785156 37.46875 34.785156 36.964844 C 34.785156 36.390625 34.429688 36.171875 34 36.101562 C 32.929688 35.886719 31.929688 35.8125 30.855469 35.597656 C 29.214844 35.308594 28.5 34.589844 28.5 33.292969 C 28.5 32.066406 29.355469 31.203125 30.929688 30.839844 C 31.929688 30.625 33 30.695312 34 30.914062 C 34.929688 31.128906 35.644531 31.707031 35.929688 32.644531 C 36 33.003906 36.355469 33.507812 35.785156 33.652344 C 35.355469 33.796875 34.855469 33.941406 34.5 33.292969 C 33.929688 32.136719 31.644531 31.707031 30.570312 32.425781 C 30.285156 32.644531 30.144531 32.929688 30.214844 33.292969 C 30.285156 33.722656 30.644531 33.867188 31 33.941406 C 32.285156 34.15625 33.570312 34.371094 34.855469 34.660156 C 35.644531 34.875 36.285156 35.382812 36.429688 36.316406 C 36.570312 37.253906 36.355469 38.117188 35.570312 38.695312 C 35.285156 38.910156 34.855469 39.128906 34.5 39.273438 C 33.785156 39.488281 33.070312 39.488281 32.429688 39.488281 Z M 32.429688 39.488281 "/>
<path style=" stroke:none;fill-rule:nonzero;fill:rgb(40%,62.352941%,39.215686%);fill-opacity:1;" d="M 26.285156 9.367188 C 23.714844 7.925781 21.214844 6.414062 18.714844 4.972656 C 18.070312 4.613281 17.570312 4.613281 17 4.972656 C 14.5 6.484375 11.929688 7.925781 9.429688 9.367188 C 8.855469 9.726562 8.5 10.160156 8.570312 10.882812 C 8.570312 13.835938 8.570312 16.863281 8.570312 19.816406 C 8.570312 20.464844 8.785156 20.898438 9.355469 21.257812 C 11.929688 22.769531 14.570312 24.285156 17.144531 25.796875 C 17.644531 26.085938 18.070312 26.15625 18.570312 25.867188 C 21.214844 24.355469 23.929688 22.769531 26.570312 21.257812 C 27.070312 20.96875 27.285156 20.609375 27.285156 19.960938 C 27.285156 18.445312 27.285156 16.933594 27.285156 15.421875 C 27.285156 13.980469 27.214844 12.464844 27.285156 11.023438 C 27.214844 10.160156 26.929688 9.726562 26.285156 9.367188 Z M 26.285156 9.367188 "/>
</g>
</svg>
