<?xml version="1.0" encoding="UTF-8"?>
<svg xmlns="http://www.w3.org/2000/svg" xmlns:xlink="http://www.w3.org/1999/xlink" width="50pt" height="48pt" viewBox="0 0 50 48" version="1.1">
<g id="surface1">
<path style=" stroke:none;fill-rule:nonzero;fill:rgb(85.490196%,72.54902%,17.647059%);fill-opacity:1;" d="M 25.351562 45.8125 L 10.773438 41.71875 L 7.535156 5.082031 L 43.308594 5.152344 L 40 41.789062 Z M 25.351562 45.8125 "/>
<path style=" stroke:none;fill-rule:nonzero;fill:rgb(100%,84.705882%,22.745098%);fill-opacity:1;" d="M 37.183594 39.386719 L 40.070312 8.117188 L 25.421875 8.117188 L 25.351562 42.707031 Z M 37.183594 39.386719 "/>
<path style=" stroke:none;fill-rule:nonzero;fill:rgb(100%,100%,100%);fill-opacity:1;" d="M 26.269531 12.636719 L 26.195312 26.1875 L 30.773438 26.1875 L 30.210938 32.046875 L 26.195312 33.105469 L 26.195312 37.765625 L 34.367188 35.507812 L 35.632812 21.742188 L 30.703125 21.742188 L 30.703125 17.082031 L 36.054688 17.152344 L 36.480469 12.636719 Z M 26.269531 12.636719 "/>
<path style=" stroke:none;fill-rule:nonzero;fill:rgb(100%,100%,100%);fill-opacity:1;" d="M 20.070312 12.566406 L 20.703125 32.257812 L 19.367188 31.90625 L 19.085938 28.445312 L 15.421875 28.375 L 16.054688 35.433594 L 24.226562 37.765625 L 24.296875 12.636719 Z M 20.070312 12.566406 "/>
</g>
</svg>
