<?xml version="1.0" encoding="utf-8"?>
<!-- Generator: Adobe Illustrator 22.0.0, SVG Export Plug-In . SVG Version: 6.00 Build 0)  -->
<svg version="1.1" id="Layer_1" xmlns="http://www.w3.org/2000/svg" xmlns:xlink="http://www.w3.org/1999/xlink" x="0px" y="0px"
	 viewBox="0 0 159 159" style="enable-background:new 0 0 159 159;" xml:space="preserve">
<style type="text/css">
	.st0{fill:#F6CA62;}
	.st1{fill:#A7DAE9;}
	.st2{fill:#F95C25;}
	.st3{fill:#D1D1D1;}
	.st4{fill:#EDEDED;}
	.st5{fill:#15B0B0;}
	.st6{fill:#2D5872;}
	.st7{fill:#1C1936;}
</style>
<rect class="st2" width="159" height="159"/>
<g>
	<g>
		<path class="st3" d="M141.9,158.6c0.1-5.8,0.1-13.4-0.2-22.3c-1-22.2-6.4-29.6-14.8-35.4C117,94.1,94.5,96.2,93.1,90
			c-1.4-6.3-2.9-13.8-2.9-13.8H67.7c0,0-1.4,7.6-2.9,13.8c-1.4,6.3-23.9,4.1-33.8,10.9c-8.4,5.8-13.8,13.2-14.8,35.4
			c-0.4,9-0.4,16.5-0.2,22.3H141.9z"/>
		<path class="st6" d="M141.9,159c0.1-5.8,0.2-13.4-0.2-22.5c-1-22.2-5.2-28.8-14.8-35.4c-6.4-4.4-19.7-5.2-22.7-6
			c-7,17.9-8.7,26.8-24.7,26.9c-12.9,0.1-23.3-20.2-24.9-27.2c-4.6,0.9-18.2,1.8-23.5,6.3c-7.8,6.6-13.8,13.2-14.8,35.4
			c-0.4,9.1-0.4,16.7-0.2,22.5H141.9z"/>
		<g>
			<path class="st4" d="M79.6,13.5c-1.2,0-17,2.7-22,9.9c-5,7.1-4.6,28.8-4.6,28.8s2.8,15.8,5.9,20.4c3.1,4.6,7,7.5,10.7,10.1
				c4,2.8,6.8,2.9,10.1,2.9c3.3,0,6-0.2,10.1-2.9c3.6-2.5,7.6-5.4,10.7-10.1c3.1-4.6,5.9-20.4,5.9-20.4s0.3-21.7-4.6-28.8
				C96.6,16.2,80.8,13.5,79.6,13.5z"/>
		</g>
		<path class="st6" d="M97.8,34.1c0,0-2,5.2-16.8,11.4c-7.8,3.3-20.9,5.2-21.3,3.3c0,0-1.3,7.8-1.2,13.8c0.3,19.5,6.3,25.9,4.9,27.1
			C61.2,91.6,50,74.6,48.4,64.1c-3.8-25.3,5.7-40.7,13.4-45.5C72.9,11.7,78,11.8,86.6,13c6.1,0.9,10.7,4.4,12.4,7.3
			c0,0,5.5,0.4,9.3,6.1c3.5,5.1,8.8,30.7,0.9,45.6c-7.9,14.9-11,17.8-16.6,21c0,0,6.2-10.6,8.5-22.3
			C103.5,59.1,105.3,40.6,97.8,34.1z"/>
	</g>
	<g>
		<path class="st6" d="M102.6,51.3c-0.3-0.6-3.4-1.2-8.4-1.3c-5.9-0.1-9.9,1.1-10.8,1.3c-0.9,0.1-2.4,0.5-2.4,0.5s-1.5-0.3-2.4-0.5
			c-0.9-0.1-4.9-1.4-10.8-1.3c-5,0.1-8.2,0.7-8.4,1.3c-0.3,0.6-0.6,2.2-0.1,2.6c0.5,0.3,0.8,0.9,1.1,1.4c0.3,0.6,0.6,2.3,1.8,3.8
			c0.9,1.1,1.9,1.9,7.7,1.9c4.9,0,7.1-1.2,7.9-2.2c1-1.2,1.3-3.7,1.8-4.3c0.5-0.6,1.1-0.9,1.4-0.9c0.3,0,0.9,0.3,1.4,0.9
			c0.5,0.6,0.9,3.1,1.8,4.3c0.8,1,3,2.2,7.9,2.2c5.8-0.1,6.8-0.8,7.7-1.9c1.2-1.4,1.4-3.2,1.8-3.8c0.3-0.6,0.6-1.1,1.1-1.4
			C103.1,53.5,102.8,51.9,102.6,51.3z M78,55.8c-0.5,2.6-1.8,3.5-4.8,4.1c-3,0.7-7.3,0.2-8.7-0.2c-1.3-0.3-2.2-1.1-2.9-3.1
			c-0.8-2-1-4.2-0.4-4.9c0.5-0.7,2.7-0.9,2.7-0.9c4.8-0.6,12.1,0.4,13.4,0.9C78.5,52.3,78.5,53.1,78,55.8z M100.1,56.6
			c-0.8,2-1.7,2.8-2.9,3.1c-1.4,0.3-5.7,0.9-8.7,0.2c-3-0.7-4.3-1.5-4.8-4.1c-0.5-2.6-0.5-3.5,0.8-4c1.3-0.5,8.6-1.5,13.4-0.9
			c0,0,2.2,0.3,2.7,0.9C101,52.4,100.9,54.6,100.1,56.6z"/>
	</g>
</g>
</svg>
