<?xml version="1.0" encoding="utf-8"?>
<!-- Generator: Adobe Illustrator 22.0.0, SVG Export Plug-In . SVG Version: 6.00 Build 0)  -->
<svg version="1.1" id="Layer_1" xmlns="http://www.w3.org/2000/svg" xmlns:xlink="http://www.w3.org/1999/xlink" x="0px" y="0px"
	 viewBox="0 0 159 159" style="enable-background:new 0 0 159 159;" xml:space="preserve">
<style type="text/css">
	.st0{fill:#F6CA62;}
	.st1{fill:#A7DAE9;}
	.st2{fill:#F95C25;}
	.st3{fill:#D1D1D1;}
	.st4{fill:#EDEDED;}
	.st5{fill:#15B0B0;}
	.st6{fill:#2D5872;}
	.st7{fill:#1C1936;}
</style>
<rect class="st0" width="159" height="159"/>
<g>
	<path class="st3" d="M140.2,158.6c0.1-5.5,0.1-12.6-0.2-21.1c-0.9-21-6.1-28-14-33.5c-9.3-6.5-30.6-4.4-31.9-10.3
		c-1.4-5.9-2.7-13.1-2.7-13.1H70c0,0-1.4,7.1-2.7,13.1c-1.4,5.9-22.6,3.9-31.9,10.3c-7.9,5.5-13.1,12.5-14,33.5
		c-0.4,8.5-0.4,15.6-0.2,21.1H140.2z"/>
	<path class="st2" d="M140.1,159c0.1-5.5,0.1-12.7-0.2-21.3c-0.9-21-4.8-27.7-13.8-33.9c-6-4.2-18.6-4.9-21.5-5.7
		C98,115.1,96.1,124,81.1,124c-12.2,0.1-22.3-19.3-23.8-25.9c-4.4,0.9-18.1,2-23.1,6.3c-7.3,6.2-12,12.3-12.9,33.3
		c-0.4,8.6-0.4,15.8-0.2,21.3H140.1z"/>
	<g>
		<path class="st4" d="M81.3,19.9c-1.2,0-16.1,4.1-20.8,10.8C55.8,37.5,56.1,58,56.1,58s2.6,14.9,5.6,19.3c2.9,4.4,6.7,7.1,10.1,9.5
			c3.8,2.6,6.4,2.8,9.5,2.8c3.1,0,5.7-0.1,9.5-2.8c3.4-2.4,7.2-5.1,10.1-9.5c2.9-4.4,5.6-19.3,5.6-19.3s0.3-20.5-4.4-27.2
			C97.4,24,82.4,19.9,81.3,19.9z"/>
	</g>
	<path class="st7" d="M93.9,19.9c0,0,0.4-7.6-17.9-4.4c-18.3,3.2-26.6,14.3-29.8,24.3c-3.2,9.9-2,11.9-3.6,14.7
		c-1.6,2.8-4.6,4.5-4.9,5.7c-0.3,1.2,2.6,0.6,5.7,2.4c5.7,3.2-0.5,10.1,0.8,9.7c1.7-0.6,4.2,0.3,6.6,2.2c2.4,2,5.7,6.4,14.8,8
		c0,0-12.6-17.9-7.8-30.5c3.1-8.3,6.6-11.8,13.8-13c7.2-1.2,23.1-11.1,24.3-13.9C97.1,22.3,93.9,19.9,93.9,19.9z"/>
	<path class="st7" d="M93.9,19.9c0,0,4.8,0,9.5,2.4c4.8,2.4,12.7,9.5,13.1,17.1c0.4,7.6-0.8,12.3,0.4,15.5c1.2,3.2,3.4,6,2.5,7
		c-0.6,0.8-3.4-1.5-3.7,0.1c-0.5,2.2,3.3,6.7,1.3,6.3c-2-0.4-2.6-1-4.2,0c-3.9,2.5-2.2,9.8-4.3,9.9c-1,0.1-1.5-3.6-3.5-1.1
		c-1.3,1.7-8.4,6.6-11.6,7.8c0,0,12.4-15.8,12.4-28.5s-5.3-9.8-9.9-14.3c-7.3-7.2-4.8-15.5-4.8-15.5L93.9,19.9z"/>
</g>
</svg>
