<?xml version="1.0" encoding="utf-8"?>
<!-- Generator: Adobe Illustrator 22.0.0, SVG Export Plug-In . SVG Version: 6.00 Build 0)  -->
<svg version="1.1" id="Layer_1" xmlns="http://www.w3.org/2000/svg" xmlns:xlink="http://www.w3.org/1999/xlink" x="0px" y="0px"
	 viewBox="0 0 159 159" style="enable-background:new 0 0 159 159;" xml:space="preserve">
<style type="text/css">
	.st0{fill:#F6CA62;}
	.st1{fill:#A7DAE9;}
	.st2{fill:#F95C25;}
	.st3{fill:#D1D1D1;}
	.st4{fill:#EDEDED;}
	.st5{fill:#15B0B0;}
	.st6{fill:#2D5872;}
	.st7{fill:#1C1936;}
</style>
<rect class="st1" width="159" height="159"/>
<g>
	<path class="st3" d="M63.6,82.1c0,0-0.3,3.9-0.9,8.1c-0.1,0.5-0.2,1.5-0.3,1.9l-1.9,1.4c-0.7,4.9,20.3,23.1,20.3,23.1l19.8-22.9
		l-3.2-1.3c0-0.4-0.1-0.8-0.1-1.3c-0.3-3.8-0.7-8.6-0.9-10.1L63.6,82.1z"/>
	<g>
		<g>
			<path class="st4" d="M79,20.2c0,0-31.9-1.1-27.1,30.7c0,0-5.6,1.9-4,9.2c1.1,5.2,3.9,9.9,8.1,9.9c0,0,3.3,9.7,9.9,15.7
				c2.3,2.1,6.9,3.9,13.1,4.3c6.2-0.4,10.8-2.2,13.1-4.3c6.5-6,9.9-15.7,9.9-15.7c4.2,0,7-4.7,8.1-9.9c1.6-7.2-4-9.2-4-9.2
				C111,19.1,79,20.2,79,20.2z"/>
		</g>
	</g>
	<path class="st6" d="M149.2,159c0.2-4,0.4-12.2-0.2-25.4c-0.9-19.8-6.1-25.5-13.5-30.6c-6.9-4.8-31.8-8-37.5-10.4
		c0,0-1.5,9-18.2,8.7c-16.7,0.3-18.2-8.7-18.2-8.7C55.8,95,31,98.2,24,103c-7.4,5.2-12.3,10.9-13.1,30.6
		c-0.6,13.2-0.4,21.4-0.2,25.4H149.2z"/>
	<g>
		<path class="st7" d="M106.2,51.1l-0.1-3.1l-3.3,0c0,0-3.3-0.9-7.5-1.2c-4.1-0.3-10,0.3-11.6,0.7C82,48,79,48.1,79,48.1
			s-3-0.1-4.7-0.5c-1.7-0.4-7.5-1-11.6-0.7c-4.1,0.3-7.5,1.2-7.5,1.2l0,0l-3.2,0l0.8,3.1l2.9,0.3c0.4,0.2,1,0.5,1.1,1
			c0.2,0.8,0.4,5.3,2.4,8.2c1.2,1.7,3,3.1,7.2,3c3.2-0.1,6.5-1.2,8.4-4.4c1.9-3.2,2-5.8,2.5-6.4c0.5-0.5,1.3-0.7,1.6-0.7
			c0.3-0.1,1.1,0.1,1.6,0.7c0.5,0.5,0.6,3.2,2.5,6.4c1.9,3.2,5.2,4.4,8.4,4.4c4.2,0.1,6-1.3,7.2-3c2-3,2.2-7.4,2.4-8.2
			c0.1-0.5,0.7-0.8,1.1-1L106.2,51.1z M70.5,61.5c-2.2,1.3-6.7,1.2-8.6,0.2c-1.7-0.9-2.9-4-3.3-6.4c-0.3-1.7-1.1-5,0.2-5.6
			c2.4-1.3,6.3-1.4,6.3-1.4c2-0.2,5.8,0.1,7,0.5c1.7,0.6,3.4,1.5,3.3,5.1C75,58.2,72.9,60,70.5,61.5z M99.3,55.3
			c-0.4,2.5-1.6,5.5-3.3,6.4c-1.9,1-6.4,1.1-8.6-0.2c-2.5-1.5-4.6-3.3-4.8-7.7c-0.2-3.6,1.6-4.5,3.3-5.1c1.2-0.4,5-0.7,7-0.5
			c0,0,3.8,0.1,6.3,1.4C100.4,50.3,99.6,53.6,99.3,55.3z"/>
	</g>
	<g>
		<path class="st7" d="M79.1,71.3c0,0-14.2,3.4-16.7,2.7c-2.5-0.7-6.1-5.3-6.1-5.3l-0.2,2.7c0,0,0.4,10.8,4.7,15.4
			c3.8,4,12.5,6.2,18.3,6.5c5.8-0.3,14.6-2.5,18.3-6.5c4.3-4.6,4.7-15.4,4.7-15.4l-0.2-2.7c0,0-3.6,4.6-6.1,5.3
			C93.4,74.7,79.1,71.3,79.1,71.3z"/>
	</g>
	<g>
		<polygon class="st4" points="79.1,81.8 75.4,82.1 71.8,81.8 70.9,79.4 79.1,78.8 87.3,79.4 86.5,81.8 82.9,82.1 		"/>
	</g>
	<path class="st7" d="M69.1,15.5c0,0-16.6,3.6-18.2,5.5c-1.7,1.9-7.3,9.8-4,17.3c3.4,7.4,4.6,12.7,4.6,12.7l2.1,4.2l3.1-3.6
		c0,0-0.1-10.9,0.2-12.3c0.2-1.4,5.8-6.5,8.9-8.4c3.1-1.9,10.1-8.4,10.1-8.4s7.7,14.2,12.7,16.8c5,2.6,13,6.7,13,6.7
		s1.2,7.9,1.9,8.2c0.7,0.2,2.2-2.9,2.2-2.9l1.1-6.3c0,0,3,1.2,3.4,0c0.4-1.2-2.9-3.1-1.4-4.1c1.4-1,3.7-1.6,3.6-2.6
		c-0.1-1-2.9-2.9-2.6-3.6c0.2-0.7,1-1.9,1-2.6c0-0.7-0.6-6.6-4.4-9.3c-3.9-2.8-8.1-3.9-8.1-3.9s-6-6.2-12.2-6.7
		C79.6,11.7,76,10,69.1,15.5z"/>
</g>
</svg>
